<svg width="41" height="40" viewBox="0 0 41 40" fill="none" xmlns="http://www.w3.org/2000/svg">
<g id="add_a_photo_24px">
<path id="icon/image/add_a_photo_24px" opacity="0.7" fill-rule="evenodd" clip-rule="evenodd" d="M7.68746 15.8333C6.74788 15.8333 5.97913 15.0833 5.97913 14.1667V10.8333H2.56246C1.62288 10.8333 0.854126 10.0833 0.854126 9.16667C0.854126 8.25 1.62288 7.5 2.56246 7.5H5.97913V4.16667C5.97913 3.25 6.74788 2.5 7.68746 2.5C8.62704 2.5 9.39579 3.25 9.39579 4.16667V7.5H12.8125C13.752 7.5 14.5208 8.25 14.5208 9.16667C14.5208 10.0833 13.752 10.8333 12.8125 10.8333H9.39579V14.1667C9.39579 15.0833 8.62704 15.8333 7.68746 15.8333ZM18.6241 21.6666C19.5396 20.1196 21.2315 19.1666 23.0625 19.1666C24.8935 19.1666 26.5854 20.1196 27.5009 21.6666C28.4164 23.2136 28.4164 25.1196 27.5009 26.6666C26.5854 28.2136 24.8935 29.1666 23.0625 29.1666C21.2315 29.1666 19.5396 28.2136 18.6241 26.6666C17.7086 25.1196 17.7086 23.2136 18.6241 21.6666ZM36.7291 10.8333H31.3137L29.1954 8.58333C28.5633 7.9 27.6408 7.5 26.6841 7.5H15.7508C16.0412 8 16.2291 8.55 16.2291 9.16667C16.2291 11 14.6916 12.5 12.8125 12.5H11.1041V14.1667C11.1041 16 9.56663 17.5 7.68746 17.5C7.05538 17.5 6.49162 17.3167 5.97913 17.0333V34.1667C5.97913 36 7.51662 37.5 9.39579 37.5H36.7291C38.6083 37.5 40.1458 36 40.1458 34.1667V14.1667C40.1458 12.3333 38.6083 10.8333 36.7291 10.8333ZM14.5207 24.1667C14.5207 28.7667 18.3474 32.5 23.0624 32.5C27.7774 32.5 31.6041 28.7667 31.6041 24.1667C31.6041 19.5667 27.7774 15.8334 23.0624 15.8334C18.3474 15.8334 14.5207 19.5667 14.5207 24.1667Z" fill="white"/>
</g>
</svg>
